{"title":"Age of Dinosaurs 2013 BRRip x264 AAC-KiSSMYACE","uid":8791843,"size":715004120,"categoryP":"video","categoryS":"movies","magnet":"?xt=urn:btih:ca2a9c2b555560c5c794926efe4a9d826276f2f1&amp;dn=Age+of+Dinosaurs+2013+BRRip+x264+AAC-KiSSMYACE&amp;tr=udp%3A%2F%2Ftracker.openbittorrent.com%3A80&amp;tr=udp%3A%2F%2Fopen.demonii.com%3A1337&amp;tr=udp%3A%2F%2Ftracker.coppersurfer.tk%3A6969&amp;tr=udp%3A%2F%2Fexodus.desync.com%3A6969","seeders":0,"leechers":1,"uploader":"TheRealMovieGuru","files":3,"time":1375969238,"description":" &lt;a href=&quot;http://www.imdb.com/title/tt2518926/&quot; rel=&quot;nofollow&quot; target=&quot;_NEW&quot;&gt;http://www.imdb.com/title/tt2518926/&lt;/a&gt;\n\nUsing breakthrough flesh-regeneration technology, a biotech firm creates a set of living dinosaurs. But when the creatures escape their museum exhibit and terrorize Los Angeles, a former firefighter must rescue his teenage daughter from the chaos brought on by the Age of Dinosaurs.\n\nGeneral\nComplete name : Age of Dinosaurs 2013 BRRip x264 AAC-KiSSMYACE.mp4\nFormat : MPEG-4\nFormat profile : Base Media\nCodec ID : isom\nFile size : 675 MiB\nDuration : 1h 28mn\nOverall bit rate mode : Variable\nOverall bit rate : 1 067 Kbps\nEncoded date : UTC 2013-08-08 11:06:52\nTagged date : UTC 2013-08-08 11:06:52\n\nVideo\nID : 1\nFormat : AVC\nFormat/Info : Advanced Video Codec\nFormat profile : &lt;a class=&quot;__cf_email__&quot; href=&quot;/cdn-cgi/l/email-protection&quot; data-cfemail=&quot;1f577678775f532b312e&quot;&gt;[email&amp;#160;protected]&lt;/a&gt;&lt;script cf-hash='f9e31' type=&quot;text/javascript&quot;&gt;\n/* &lt;![CDATA[ */!function(){try{var t=&quot;currentScript&quot;in document?document.currentScript:function(){for(var t=document.getElementsByTagName(&quot;script&quot;),e=t.length;e--;)if(t[e].getAttribute(&quot;cf-hash&quot;))return t[e]}();if(t&amp;&amp;t.previousSibling){var e,r,n,i,c=t.previousSibling,a=c.getAttribute(&quot;data-cfemail&quot;);if(a){for(e=&quot;&quot;,r=parseInt(a.substr(0,2),16),n=2;a.length-n;n+=2)i=parseInt(a.substr(n,2),16)^r,e+=String.fromCharCode(i);e=document.createTextNode(e),c.parentNode.replaceChild(e,c)}}}catch(u){}}();/* ]]&gt; */&lt;/script&gt;\nFormat settings, CABAC : Yes\nFormat settings, ReFrames : 3 frames\nCodec ID : avc1\nCodec ID/Info : Advanced Video Coding\nDuration : 1h 28mn\nBit rate mode : Variable\nBit rate : 732 Kbps\nMaximum bit rate : 40.0 Mbps\nWidth : 720 pixels\nHeight : 384 pixels\nDisplay aspect ratio : 1.85:1\nFrame rate mode : Constant\nFrame rate : 23.976 fps\nColor space : YUV\nChroma subsampling : 4:2:0\nBit depth : 8 bits\nScan type : Progressive\nBits/(Pixel*Frame) : 0.110\nStream size : 463 MiB (69%)\nWriting library : x264 core 135 r2345 f0c1c53\n\nAudio\nID : 2\nFormat : AAC\nFormat/Info : Advanced Audio Codec\nFormat profile : LC\nCodec ID : 40\nDuration : 1h 28mn\nBit rate mode : Variable\nBit rate : 331 Kbps\nMaximum bit rate : 382 Kbps\nChannel(s) : 6 channels\nChannel positions : Front: L C R, Side: L R, LFE\nSampling rate : 48.0 KHz\nCompression mode : Lossy\nStream size : 209 MiB (31%)\nLanguage : English\nEncoded date : UTC 2013-08-08 10:27:38\nTagged date : UTC 2013-08-08 11:07:07\n","torrent":{"xt":"urn:btih:ca2a9c2b555560c5c794926efe4a9d826276f2f1","amp;dn":"Age+of+Dinosaurs+2013+BRRip+x264+AAC-KiSSMYACE","amp;tr":["udp%3A%2F%2Ftracker.openbittorrent.com%3A80","udp%3A%2F%2Fopen.demonii.com%3A1337","udp%3A%2F%2Ftracker.coppersurfer.tk%3A6969","udp%3A%2F%2Fexodus.desync.com%3A6969"],"infoHash":"ca2a9c2b555560c5c794926efe4a9d826276f2f1","infoHashBuffer":{"type":"Buffer","data":[202,42,156,43,85,85,96,197,199,148,146,110,254,74,157,130,98,118,242,241]},"announce":[],"urlList":[]}}